<svg xmlns="http://www.w3.org/2000/svg" width="84.081" height="29.171" viewBox="0 0 84.081 29.171"><defs><style>.a{fill:#00aec7;}.b{fill:#0033a0;}</style></defs><g transform="translate(0 0)"><g transform="translate(60.261)"><path class="a" d="M692.828,328.44c.055,0,.055.055.055.1a7.38,7.38,0,0,1-1.467,1.367,12.6,12.6,0,0,1-2.232,1.3,12.278,12.278,0,0,1-2.392.98,5.755,5.755,0,0,1-2.278.219,2.188,2.188,0,0,1-1.253-.492v-.036c0-.05.055-.05.055-.05a32.271,32.271,0,0,0,5.495-1.417,17.312,17.312,0,0,0,4.023-1.955" transform="translate(-680.212 -303.79)"/><path class="a" d="M689.022,326.279A24.531,24.531,0,0,1,683.8,328.4a14.892,14.892,0,0,1-5.381.816,2.76,2.76,0,0,1-1.795-.87l-.055-.055c0-.055.055-.055.109-.055l.456-.055c.911-.055,2.556-.109,4.46-.378a42.981,42.981,0,0,0,7.395-1.631c.055,0,.055.055.055.109" transform="translate(-676.57 -302.555)"/><path class="a" d="M698.357,332.61c.055,0,.055,0,.055.055a3.613,3.613,0,0,1-1.736,2.123c-1.581.761-2.4.324-2.5.269a.189.189,0,0,1-.055-.109.055.055,0,0,1,.055-.055,9.99,9.99,0,0,0,4.183-2.278h0" transform="translate(-686.124 -306.06)"/><path class="a" d="M703.239,291.44l.055.055a.055.055,0,0,1-.055.055c-.488-.109-1.467-.383-2.734-.761-2.884-.765-13.705-3.645-13.869-3.645h-.055a3.536,3.536,0,0,1-1.576-.98,3.213,3.213,0,0,1-.328-.433,4.293,4.293,0,0,1-.488-1.526v-.055h.109l1.8.711c4.187,1.576,15.332,5.873,17.127,6.579" transform="translate(-680.718 -279.648)"/><path class="a" d="M702.1,284.365c0,.055,0,.109-.055.055-.651-.328-2.064-.98-3.531-1.686-1.2-.6-9.568-4.515-10.169-4.789l-.98-.488c-.164-.055-.273-.164-.456-.219a2.542,2.542,0,0,1-1.248-1.413,4.861,4.861,0,0,1-.219-1.522.055.055,0,0,1,.055-.055h.109l1.034.651.542.328,3.048,1.845c4.292,2.556,10.274,6.31,11.846,7.29" transform="translate(-681.398 -274.25)"/><path class="a" d="M706.116,298.742l.055.055a.055.055,0,0,1-.054.055l-16.425-1.084a.912.912,0,0,1-.378-.055,3.148,3.148,0,0,1-2.123-2.178v-.109a.191.191,0,0,1,.109-.055c-.055,0,17.4,3.1,18.817,3.372" transform="translate(-682.351 -285.762)"/><path class="a" d="M710.092,304.92a.055.055,0,0,1,.055.055l-.055.055c-.6.109-11.846,1.686-11.91,1.686H697.8a2.506,2.506,0,0,1-1.522-.816,3.5,3.5,0,0,1-.487-.816v-.055l.055-.055s3.75,0,6.142-.055h8.105" transform="translate(-687.033 -290.967)"/><path class="a" d="M713.126,307.43h.055a.078.078,0,0,1,0,.109c-.383.269-8.429,3.586-8.538,3.645a.961.961,0,0,1-1.308-.378c-.164-.273-.269-.456-.324-.542s-.109-.109.109-.219c0,0,2.278-.6,4.292-1.144,2.4-.6,5.062-1.248,5.713-1.467" transform="translate(-690.938 -292.337)"/><path class="a" d="M711.443,319.72c.055,0,.055.055.055.109-.761.911-3.645,4.1-4.948,5.495-.164.159-.219.055-.164-.055a4.41,4.41,0,0,0,.328-1.089c.055-.273.1-.542.269-.652C708.723,322.057,710.354,320.645,711.443,319.72Z" transform="translate(-692.79 -299.043)"/><path class="a" d="M714.417,310.852c.055,0,.055.055.055.109-.761.652-4.406,3.7-6.379,5.276l-.055.055c-.542.433-.911.542-1.03-.383a2.068,2.068,0,0,0-.055-.456c-.055-.214,0-.214.1-.214.656-.383,1.85-1.089,2.829-1.686,1.686-1.034,3.754-2.233,4.515-2.734" transform="translate(-693.099 -294.187)"/></g><path class="b" d="M547.71,297.678l3.1.814a1.972,1.972,0,0,1,1.74,1.954c0,1.246-.816,2.009-2.734,2.009l-5.923.055v2.655h6.037c3.645,0,5.764-1.95,5.764-4.545s-1.03-3.909-3.75-4.614l-3.535-.977c-.98-.268-1.85-.7-1.85-1.9s.761-1.845,2.337-1.845h3.158c1.412,0,3.043-.486,3.043-2.727h-5.982c-3.645,0-5.764,1.845-5.764,4.5C543.359,295.578,544.881,296.974,547.71,297.678Zm17.131,7.759c3.153,0,6.251-1.518,6.251-4.609v-8.954c0-2.441-.911-3.254-2.934-3.254v11.5c0,1.682-1.417,2.5-3.189,2.5-1.955,0-3.189-.868-3.189-2.5v-8.636c0-2.445-1.522-2.877-2.879-2.877v12.209C558.8,303.919,561.575,305.437,564.841,305.437ZM577.89,294.86c0-2.227,1.2-3.527,3.426-3.527h.87c2.556,0,2.939-1.3,2.939-2.727h-4.1c-3.586,0-6.092,2.064-6.092,6.363v10.254h2.884V294.86Zm14.192,10.686a5.457,5.457,0,0,0,4.948-2.55c.218,1.682,1.143,2.223,2.993,2.223V290.951h0v-2.386h-7.171c-3.859,0-7.5,2.823-7.668,8.409C585.016,302.019,587.622,305.546,592.082,305.546Zm.816-14.268h3.918v7.1c0,2.273-1.308,4.5-4.192,4.5-2.551,0-4.4-1.736-4.292-5.859C588.438,293.069,590.4,291.278,592.9,291.278Z" transform="translate(-543.35 -282.04)"/></g></svg>