<svg xmlns="http://www.w3.org/2000/svg" width="109.378" height="37.947" viewBox="0 0 109.378 37.947"><defs><style>.a{fill:#00aec7;}.b{fill:#0033a0;}</style></defs><g transform="translate(78.392)"><path class="a" d="M695.707,328.44c.071,0,.071.071.071.136a9.6,9.6,0,0,1-1.909,1.778,16.39,16.39,0,0,1-2.9,1.7,15.968,15.968,0,0,1-3.112,1.274,7.485,7.485,0,0,1-2.963.285,2.846,2.846,0,0,1-1.63-.64v-.047c0-.065.071-.065.071-.065a41.983,41.983,0,0,0,7.148-1.843,22.525,22.525,0,0,0,5.234-2.543" transform="translate(-679.295 -296.374)"/><path class="a" d="M692.768,326.312a31.911,31.911,0,0,1-6.792,2.756,19.375,19.375,0,0,1-7,1.061A3.591,3.591,0,0,1,676.641,329l-.071-.071c0-.071.071-.071.142-.071l.593-.071c1.185-.071,3.325-.142,5.8-.492a55.91,55.91,0,0,0,9.619-2.122c.071,0,.071.071.071.142" transform="translate(-676.57 -295.45)"/><path class="a" d="M699.632,332.61c.071,0,.071,0,.071.071a4.7,4.7,0,0,1-2.258,2.762c-2.056.99-3.117.421-3.254.35a.247.247,0,0,1-.071-.142.071.071,0,0,1,.071-.071,13,13,0,0,0,5.441-2.964h0" transform="translate(-683.718 -298.072)"/><path class="a" d="M708.97,293.633l.071.071a.071.071,0,0,1-.071.071c-.634-.142-1.909-.5-3.556-.99-3.752-1-17.828-4.742-18.042-4.742H687.3a4.6,4.6,0,0,1-2.051-1.274,4.185,4.185,0,0,1-.427-.563,5.584,5.584,0,0,1-.634-1.986v-.071h.142l2.335.925c5.447,2.051,19.944,7.64,22.279,8.559" transform="translate(-679.674 -278.293)"/><path class="a" d="M707.108,287.408c0,.071,0,.142-.071.071-.847-.427-2.685-1.274-4.593-2.193-1.559-.782-12.447-5.874-13.229-6.229l-1.274-.634c-.213-.071-.355-.213-.593-.284a3.308,3.308,0,0,1-1.624-1.838,6.327,6.327,0,0,1-.285-1.98.071.071,0,0,1,.071-.071h.142L687,275.1l.705.427,3.965,2.4c5.583,3.325,13.365,8.209,15.41,9.483" transform="translate(-680.182 -274.25)"/><path class="a" d="M711.81,299.756l.071.071a.071.071,0,0,1-.071.071l-21.367-1.411a1.187,1.187,0,0,1-.492-.071,4.1,4.1,0,0,1-2.762-2.833v-.142a.249.249,0,0,1,.142-.071c-.071,0,22.641,4.036,24.478,4.386" transform="translate(-680.896 -282.872)"/><path class="a" d="M714.395,304.92a.071.071,0,0,1,.071.071l-.071.071c-.782.142-15.41,2.193-15.493,2.193h-.5a3.26,3.26,0,0,1-1.98-1.061,4.557,4.557,0,0,1-.634-1.061v-.071l.071-.071s4.878,0,7.989-.071h10.544" transform="translate(-684.398 -286.769)"/><path class="a" d="M716.184,307.43h.071a.1.1,0,0,1,0,.142c-.5.35-10.965,4.665-11.107,4.742a1.25,1.25,0,0,1-1.7-.492c-.213-.356-.35-.593-.421-.705s-.142-.142.142-.285c0,0,2.963-.782,5.583-1.488,3.118-.776,6.585-1.624,7.432-1.909" transform="translate(-687.32 -287.796)"/><path class="a" d="M712.971,319.72c.071,0,.071.071.071.142-.99,1.185-4.741,5.334-6.436,7.148-.214.207-.285.071-.214-.071a5.733,5.733,0,0,0,.427-1.417c.071-.356.136-.705.35-.848C709.432,322.761,711.554,320.923,712.971,319.72Z" transform="translate(-688.706 -292.823)"/><path class="a" d="M716.669,310.862c.071,0,.071.071.071.142-.99.848-5.731,4.813-8.3,6.864l-.071.071c-.705.563-1.185.705-1.34-.5a2.7,2.7,0,0,0-.071-.593c-.071-.279,0-.279.136-.279.853-.5,2.406-1.417,3.68-2.193,2.193-1.345,4.884-2.9,5.874-3.556" transform="translate(-688.937 -289.182)"/></g><path class="b" d="M549.022,300.421l4.03,1.058a2.565,2.565,0,0,1,2.264,2.542c0,1.62-1.061,2.614-3.556,2.614l-7.7.071v3.453h7.853c4.742,0,7.5-2.537,7.5-5.913s-1.34-5.085-4.878-6l-4.6-1.271c-1.274-.349-2.406-.917-2.406-2.466s.99-2.4,3.041-2.4h4.107c1.837,0,3.959-.633,3.959-3.548h-7.782c-4.742,0-7.5,2.4-7.5,5.86C543.362,297.69,545.341,299.5,549.022,300.421Zm22.285,10.093c4.1,0,8.132-1.975,8.132-6V292.87c0-3.175-1.185-4.234-3.817-4.234V303.6c0,2.188-1.843,3.246-4.149,3.246-2.543,0-4.149-1.129-4.149-3.246V292.368c0-3.181-1.979-3.743-3.746-3.743v15.882C563.454,308.54,567.058,310.515,571.307,310.515Zm16.975-13.759c0-2.9,1.559-4.588,4.457-4.588h1.132c3.325,0,3.823-1.7,3.823-3.548H592.36c-4.665,0-7.924,2.684-7.924,8.278v13.34h3.752V296.755Zm18.462,13.9a7.1,7.1,0,0,0,6.437-3.317c.284,2.188,1.487,2.891,3.894,2.891V291.67h0v-3.1h-9.329c-5.02,0-9.762,3.672-9.975,10.939C597.552,306.068,600.942,310.657,606.744,310.657Zm1.061-18.561h5.1v9.242c0,2.956-1.7,5.86-5.453,5.86-3.319,0-5.726-2.259-5.583-7.622C602,294.426,604.552,292.1,607.805,292.1Z" transform="translate(-543.35 -280.078)"/></svg>