<svg xmlns="http://www.w3.org/2000/svg" width="109.378" height="37.947"><path d="M94.804 32.066c.071 0 .071.071.071.136a9.6 9.6 0 01-1.909 1.778 16.39 16.39 0 01-2.9 1.7 15.968 15.968 0 01-3.112 1.274 7.485 7.485 0 01-2.963.285 2.846 2.846 0 01-1.63-.64v-.047c0-.065.071-.065.071-.065a41.983 41.983 0 007.148-1.843 22.525 22.525 0 005.234-2.543m-.224-1.239a31.911 31.911 0 01-6.792 2.756 19.375 19.375 0 01-7 1.061 3.591 3.591 0 01-2.335-1.129l-.071-.071c0-.071.071-.071.142-.071l.593-.071c1.185-.071 3.325-.142 5.8-.492a55.91 55.91 0 009.619-2.122c.071 0 .071.071.071.142m-.311 3.673c.071 0 .071 0 .071.071a4.7 4.7 0 01-2.258 2.762c-2.056.99-3.117.421-3.254.35a.247.247 0 01-.071-.142.071.071 0 01.071-.071 13 13 0 005.441-2.964m13.382-19.204l.071.071a.071.071 0 01-.071.071c-.634-.142-1.909-.5-3.556-.99-3.752-1-17.828-4.742-18.042-4.742h-.072a4.6 4.6 0 01-2.051-1.274 4.185 4.185 0 01-.427-.563 5.584 5.584 0 01-.634-1.986v-.071h.142l2.335.925c5.447 2.051 19.944 7.64 22.279 8.559m-2.344-2.182c0 .071 0 .142-.071.071-.847-.427-2.685-1.274-4.593-2.193-1.559-.782-12.447-5.874-13.229-6.229l-1.274-.634c-.213-.071-.355-.213-.593-.284a3.308 3.308 0 01-1.624-1.838 6.327 6.327 0 01-.285-1.98A.071.071 0 0183.72 0h.142l1.348.85.705.427 3.965 2.4c5.583 3.325 13.365 8.209 15.41 9.483m4.016 3.724l.071.071a.071.071 0 01-.071.071l-21.367-1.411a1.187 1.187 0 01-.492-.071 4.1 4.1 0 01-2.762-2.833v-.142a.249.249 0 01.142-.071c-.071 0 22.641 4.036 24.478 4.386m-.916 1.267a.071.071 0 01.071.071l-.071.071c-.782.142-15.41 2.193-15.493 2.193h-.5a3.26 3.26 0 01-1.98-1.061 4.557 4.557 0 01-.634-1.061v-.071l.071-.071s4.878 0 7.989-.071h10.544m-1.13 1.483h.071a.1.1 0 010 .142c-.5.35-10.965 4.665-11.107 4.742a1.25 1.25 0 01-1.7-.492c-.213-.356-.35-.593-.421-.705s-.142-.142.142-.285c0 0 2.963-.782 5.583-1.488 3.118-.776 6.585-1.624 7.432-1.909m-4.599 7.258c.071 0 .071.071.071.142-.99 1.185-4.741 5.334-6.436 7.148-.214.207-.285.071-.214-.071a5.733 5.733 0 00.427-1.417c.071-.356.136-.705.35-.848 2.263-1.913 4.385-3.751 5.802-4.954zm3.467-5.217c.071 0 .071.071.071.142-.99.848-5.731 4.813-8.3 6.864l-.071.071c-.705.563-1.185.705-1.34-.5a2.7 2.7 0 00-.071-.593c-.071-.279 0-.279.136-.279.853-.5 2.406-1.417 3.68-2.193 2.193-1.345 4.884-2.9 5.874-3.556" fill="#00aec7"/><path d="M5.672 20.343l4.03 1.058a2.565 2.565 0 012.264 2.542c0 1.62-1.061 2.614-3.556 2.614l-7.7.071v3.453h7.853c4.742 0 7.5-2.537 7.5-5.913s-1.34-5.085-4.878-6l-4.6-1.271c-1.274-.349-2.406-.917-2.406-2.466s.99-2.4 3.041-2.4h4.107c1.837 0 3.959-.633 3.959-3.548H7.504c-4.742 0-7.5 2.4-7.5 5.86.008 3.269 1.987 5.079 5.668 6zm22.285 10.093c4.1 0 8.132-1.975 8.132-6V12.792c0-3.175-1.185-4.234-3.817-4.234v14.964c0 2.188-1.843 3.246-4.149 3.246-2.543 0-4.149-1.129-4.149-3.246V12.29c0-3.181-1.979-3.743-3.746-3.743v15.882c-.124 4.033 3.48 6.008 7.729 6.008zm16.975-13.759c0-2.9 1.559-4.588 4.457-4.588h1.132c3.325 0 3.823-1.7 3.823-3.548H49.01c-4.665 0-7.924 2.684-7.924 8.278v13.34h3.752V16.677zm18.462 13.9a7.1 7.1 0 006.437-3.317c.284 2.188 1.487 2.891 3.894 2.891V8.492h-9.329c-5.02 0-9.762 3.672-9.975 10.939-.219 6.559 3.171 11.148 8.973 11.148zm1.061-18.561h5.1v9.242c0 2.956-1.7 5.86-5.453 5.86-3.319 0-5.726-2.259-5.583-7.622.131-5.148 2.683-7.474 5.936-7.474z" fill="#0033a0"/></svg>