<svg xmlns="http://www.w3.org/2000/svg" width="84.081" height="29.171"><path d="M72.877 24.65c.055 0 .055.055.055.1a7.38 7.38 0 01-1.467 1.367 12.6 12.6 0 01-2.232 1.3 12.278 12.278 0 01-2.392.98 5.755 5.755 0 01-2.278.219 2.188 2.188 0 01-1.253-.492v-.036c0-.05.055-.05.055-.05a32.271 32.271 0 005.495-1.417 17.312 17.312 0 004.023-1.955m-.17-.942a24.531 24.531 0 01-5.222 2.121 14.892 14.892 0 01-5.381.816 2.76 2.76 0 01-1.795-.87l-.055-.055c0-.055.055-.055.109-.055l.456-.055c.911-.055 2.556-.109 4.46-.378a42.981 42.981 0 007.395-1.631c.055 0 .055.055.055.109m-.241 2.824c.055 0 .055 0 .055.055a3.613 3.613 0 01-1.736 2.123c-1.581.761-2.4.324-2.5.269a.189.189 0 01-.055-.109.055.055 0 01.055-.055 9.99 9.99 0 004.183-2.278m10.286-14.763l.055.055a.055.055 0 01-.055.055c-.488-.109-1.467-.383-2.734-.761-2.884-.765-13.705-3.645-13.869-3.645h-.055a3.536 3.536 0 01-1.576-.98 3.213 3.213 0 01-.328-.433 4.293 4.293 0 01-.488-1.526v-.055h.109l1.8.711a2434.472 2434.472 0 0117.127 6.579m-1.805-1.677c0 .055 0 .109-.055.055-.651-.328-2.064-.98-3.531-1.686-1.2-.6-9.568-4.515-10.169-4.789l-.98-.488c-.164-.055-.273-.164-.456-.219a2.542 2.542 0 01-1.248-1.413 4.861 4.861 0 01-.219-1.522.055.055 0 01.055-.055h.109l1.034.651.542.328 3.048 1.845c4.292 2.556 10.274 6.31 11.846 7.29m3.087 2.868l.055.055a.055.055 0 01-.054.055l-16.425-1.084a.912.912 0 01-.378-.055 3.148 3.148 0 01-2.123-2.178v-.109a.191.191 0 01.109-.055c-.055 0 17.4 3.1 18.817 3.372m-.707.972a.055.055 0 01.055.055l-.055.055c-.6.109-11.846 1.686-11.91 1.686h-.382a2.506 2.506 0 01-1.522-.816 3.5 3.5 0 01-.487-.816v-.055l.055-.055s3.75 0 6.142-.055h8.105m-.872 1.141h.055a.078.078 0 010 .109c-.383.269-8.429 3.586-8.538 3.645a.961.961 0 01-1.308-.378c-.164-.273-.269-.456-.324-.542s-.109-.109.109-.219c0 0 2.278-.6 4.292-1.144 2.4-.6 5.062-1.248 5.713-1.467m-3.534 5.58c.055 0 .055.055.055.109-.761.911-3.645 4.1-4.948 5.495-.164.159-.219.055-.164-.055a4.41 4.41 0 00.328-1.089c.055-.273.1-.542.269-.652 1.74-1.471 3.371-2.883 4.46-3.808zm2.665-4.012c.055 0 .055.055.055.109-.761.652-4.406 3.7-6.379 5.276l-.055.055c-.542.433-.911.542-1.03-.383a2.068 2.068 0 00-.055-.456c-.055-.214 0-.214.1-.214.656-.383 1.85-1.089 2.829-1.686 1.686-1.034 3.754-2.233 4.515-2.734" fill="#00aec7"/><path d="M4.36 15.638l3.1.814a1.972 1.972 0 011.74 1.954c0 1.246-.816 2.009-2.734 2.009l-5.923.055v2.655H6.58c3.645 0 5.764-1.95 5.764-4.545s-1.03-3.909-3.75-4.614l-3.535-.977c-.98-.268-1.85-.7-1.85-1.9s.761-1.845 2.337-1.845h3.158c1.412 0 3.043-.486 3.043-2.727H5.765c-3.645 0-5.764 1.845-5.764 4.5.008 2.521 1.53 3.917 4.359 4.621zm17.131 7.759c3.153 0 6.251-1.518 6.251-4.609V9.834c0-2.441-.911-3.254-2.934-3.254v11.5c0 1.682-1.417 2.5-3.189 2.5-1.955 0-3.189-.868-3.189-2.5V9.444c0-2.445-1.522-2.877-2.879-2.877v12.209c-.101 3.103 2.674 4.621 5.94 4.621zM34.54 12.82c0-2.227 1.2-3.527 3.426-3.527h.87c2.556 0 2.939-1.3 2.939-2.727h-4.1c-3.586 0-6.092 2.064-6.092 6.363v10.254h2.884V12.82zm14.192 10.686a5.457 5.457 0 004.948-2.55c.218 1.682 1.143 2.223 2.993 2.223V6.525h-7.171c-3.859 0-7.5 2.823-7.668 8.409-.168 5.045 2.438 8.572 6.898 8.572zm.816-14.268h3.918v7.1c0 2.273-1.308 4.5-4.192 4.5-2.551 0-4.4-1.736-4.292-5.859.106-3.95 2.068-5.741 4.568-5.741z" fill="#0033a0"/></svg>