<svg xmlns="http://www.w3.org/2000/svg" width="31.292" height="168.421"><defs><style>.a,.b{fill:#aaa}.a{fill-rule:evenodd}</style></defs><path class="a" d="M12.675 12.131c-2.018-3.046-5.444.229-2.817 2.856 4.378 4.416 10.203 6.967 18.347 7.005-10.238-.8-13.931-7.386-15.53-9.861z"/><path class="a" d="M11.608 18.528c-1.9-1.6-4.15 1.256-1.218 2.856 4.95 2.664 10.851 1.979 17.856 1.332-8.795.647-14.163-2.132-16.638-4.188zm3.275-5.635c2.817 4.073 6.967 6.853 13.326 8.033-7.843-2.056-9.632-7.767-10.7-9.823-1.37-2.665-4.263-.647-2.626 1.79zm-6.054 3.959a1.523 1.523 0 10-1.523 1.523 1.527 1.527 0 001.523-1.523zM6.545 9.047a1.523 1.523 0 101.523-1.523 1.48 1.48 0 00-1.523 1.523zm7.767-.076a1.523 1.523 0 10-1.523-1.523 1.527 1.527 0 001.523 1.523z"/><path class="a" d="M2.128 6.725a14.167 14.167 0 0013.745 21.55 13.019 13.019 0 1112.221-11.384A14.169 14.169 0 002.128 6.725zm19.913 97.276c-.609.8-.99 1.295-1.1 1.447l-.726.571-.687.152a1.382 1.382 0 01-.99-.419 1.523 1.523 0 01-.423-1.101 1.635 1.635 0 01.267-.952 4.215 4.215 0 011.1-1.066l-.685-.914a4.952 4.952 0 00-1.401 1.444 2.879 2.879 0 00-.381 1.488 2.816 2.816 0 00.343 1.368 2.386 2.386 0 00.952.99 2.572 2.572 0 001.332.342 2.893 2.893 0 001.713-.571 9.652 9.652 0 001.523-1.713 8.842 8.842 0 011.789-1.9 2.033 2.033 0 011.1-.381 1.833 1.833 0 01.914.267 1.667 1.667 0 01.685.761 2.112 2.112 0 01.267 1.066c0 .876-.609 1.637-1.828 2.322l.576.949a5 5 0 001.828-1.523 3.319 3.319 0 00.533-1.827 3.2 3.2 0 00-.876-2.25 2.86 2.86 0 00-2.094-.914 2.9 2.9 0 00-1.675.533 4.458 4.458 0 00-2.056 1.831zm1.903-10.66a7.582 7.582 0 012.018.152 2.326 2.326 0 011.142.878 2.716 2.716 0 01.419 1.485 2.849 2.849 0 01-.419 1.523 2.26 2.26 0 01-1.18.876 7.45 7.45 0 01-1.942.152h-3.883v1.064h3.96a6.589 6.589 0 002.627-.381 3.025 3.025 0 001.37-1.219 3.691 3.691 0 00.495-2.018 3.691 3.691 0 00-.495-2.018 3.075 3.075 0 00-1.333-1.18 6.415 6.415 0 00-2.55-.384h-4.074v1.07zm-4.074-7.767a4.039 4.039 0 00.419 1.827 4.193 4.193 0 001.294 1.447H20.06v1.066h11.232v-1.066h-4.378a4.873 4.873 0 001.218-1.485 4.118 4.118 0 00.419-1.789 3.941 3.941 0 00-1.257-2.97 4.16 4.16 0 00-3.084-1.218 4.168 4.168 0 00-3.046 1.256 3.71 3.71 0 00-1.294 2.932zm6.016-2.7a3.036 3.036 0 011.218 1.18 3 3 0 01.457 1.6 3.227 3.227 0 01-.457 1.637 3.3 3.3 0 01-1.18 1.218 3.524 3.524 0 01-1.676.415 3.1 3.1 0 01-2.361-.952 3.073 3.073 0 01-.952-2.322 3.487 3.487 0 01.42-1.636 3.3 3.3 0 011.215-1.182 3.261 3.261 0 011.675-.457 3.865 3.865 0 011.641.495zM21.47 72.172a4.029 4.029 0 00-1.6 3.351 4.007 4.007 0 001.561 3.274 4.321 4.321 0 002.779.952 4.4 4.4 0 002.97-1.142 3.945 3.945 0 001.333-3.158 4.479 4.479 0 00-.267-1.637 4.105 4.105 0 00-.8-1.294 4.654 4.654 0 00-1.408-1.031l-.457.914a4.533 4.533 0 011.18.914 3.3 3.3 0 01.571 1.028 3.3 3.3 0 01.228 1.218 2.846 2.846 0 01-.914 2.17 3.214 3.214 0 01-2.36.918v-7.428a4.563 4.563 0 00-2.816.951zm1.9 6.397a3.681 3.681 0 01-1.713-.952 2.905 2.905 0 01-.761-2.094 3.6 3.6 0 01.3-1.409 2.912 2.912 0 01.8-1.066 3.319 3.319 0 011.339-.609v6.13zm-3.119-10.965a3.95 3.95 0 001.066 1.028h-1.18v1.066h8.224v-1.066h-2.779a14.784 14.784 0 01-2.855-.19 2.626 2.626 0 01-1.333-.761 1.5 1.5 0 01-.419-1.028l.152-.571-.876-.534a1.906 1.906 0 00-.266.95 1.321 1.321 0 00.266 1.106zm3.388-5.064a4.614 4.614 0 01-.876 1.295l-.761.3-.8-.381a1.206 1.206 0 01-.342-.872 2.533 2.533 0 01.8-1.675l-.69-.685a3.39 3.39 0 00-1.1 2.284 2.148 2.148 0 002.17 2.251 1.96 1.96 0 001.295-.423 4.027 4.027 0 001.142-1.523 4.6 4.6 0 01.876-1.333l.8-.3a1.207 1.207 0 01.952.457 1.563 1.563 0 01.419 1.066 2.285 2.285 0 01-.915 1.709l.761.647a2.905 2.905 0 00.838-1.066 3.284 3.284 0 00.3-1.371 2.5 2.5 0 00-.685-1.789 2.218 2.218 0 00-1.713-.723 2.279 2.279 0 00-1.294.419 6.913 6.913 0 00-1.177 1.713zm-2.017-11.041a4.239 4.239 0 00-1.294 1.446 3.6 3.6 0 00-.419 1.828 4.083 4.083 0 001.256 3.008 4.168 4.168 0 003.044 1.256 4.313 4.313 0 003.086-1.218 4.061 4.061 0 001.256-2.97 4.285 4.285 0 00-.419-1.828 4.464 4.464 0 00-1.218-1.484h1.409v-1.028h-8.224v1.028h1.523zm4.303.338a3.191 3.191 0 011.184 1.184 3.227 3.227 0 01.457 1.637 3 3 0 01-.457 1.6 3.03 3.03 0 01-1.223 1.179 3.228 3.228 0 01-1.637.458 3.261 3.261 0 01-1.675-.458 3.3 3.3 0 01-1.218-1.18 3 3 0 01-.419-1.637 3.131 3.131 0 01.952-2.322 3.373 3.373 0 012.36-.952 4.77 4.77 0 011.676.491zm2.398-3.612v-1.066H16.901v1.066zm-4.379-9.252a7.577 7.577 0 012.018.152 2.489 2.489 0 011.142.838 2.755 2.755 0 01.419 1.523 2.755 2.755 0 01-.419 1.523 2.26 2.26 0 01-1.18.876 7.446 7.446 0 01-1.942.152h-3.845v1.066h3.922a6.476 6.476 0 002.627-.419 3.259 3.259 0 001.37-1.218 3.691 3.691 0 00.495-2.018 3.691 3.691 0 00-.495-2.018 3.075 3.075 0 00-1.333-1.18 6.415 6.415 0 00-2.551-.381h-4.073v1.066h3.845zm-7.043-10.546h4.683a4.239 4.239 0 00-1.295 1.446 3.6 3.6 0 00-.418 1.828 4.083 4.083 0 001.256 3.008 4.168 4.168 0 003.046 1.256 4.192 4.192 0 003.084-1.256 4.06 4.06 0 001.256-2.97 4.285 4.285 0 00-.419-1.827 4.464 4.464 0 00-1.218-1.485h1.409v-1.028H16.901zm9.023.338a3.19 3.19 0 011.18 1.18 3.227 3.227 0 01.457 1.637 3 3 0 01-.457 1.6 3.03 3.03 0 01-1.218 1.183 3.227 3.227 0 01-1.637.457 3.261 3.261 0 01-1.675-.457 3.3 3.3 0 01-1.218-1.18 3 3 0 01-.419-1.637 2.99 2.99 0 01.952-2.283 3.216 3.216 0 012.361-.952 4.057 4.057 0 011.674.452zm.114 135.734l-6.206 2.209v1.713l8.757-3.122v-1.6l-8.757-3.159v1.713z"/><path class="b" d="M19.832 159.322v-1.675h8.757v1.675z"/><path class="a" d="M25.734 151.478v-2.517a2.844 2.844 0 011.142.952 2.807 2.807 0 01.343 1.448 3.2 3.2 0 01-.876 2.246 2.822 2.822 0 01-2.132.914 2.907 2.907 0 01-2.094-.876 2.956 2.956 0 01-.876-2.17 3.376 3.376 0 011.18-2.589l-1.18-1.18a5.073 5.073 0 00-1.218 1.64 4.963 4.963 0 00-.419 2.132 4.5 4.5 0 001.523 3.541 4.43 4.43 0 003.008 1.142 4.645 4.645 0 002.36-.609 4.265 4.265 0 001.675-1.713 5.135 5.135 0 00.609-2.437 4.511 4.511 0 00-.533-2.208 4.1 4.1 0 00-1.56-1.561 4.53 4.53 0 00-2.551-.572v4.417z"/><path class="b" d="M19.832 145.653v-1.675h8.757v1.675z"/><path class="a" d="M19.832 140.476v1.675h8.757v-4.112h-1.6v2.437zm0-6.396l8.757 3.388v-1.713l-1.828-.723v-3.58l1.828-.684v-1.752l-8.757 3.388zm5.33.342l-3.008-1.18 3.008-1.18zm-4.873-11.498a6.715 6.715 0 00-.457 2.855v1.98h8.757v-2.018a8.593 8.593 0 00-.228-2.4 4.13 4.13 0 00-.761-1.294 3.616 3.616 0 00-1.409-.914 4.931 4.931 0 00-1.866-.343 4.682 4.682 0 00-2.475.609 3.767 3.767 0 00-1.561 1.525zm5.559-.114a2.075 2.075 0 01.876.838 3.537 3.537 0 01.267 1.637v.761h-5.559v-.571a3.11 3.11 0 01.685-2.246 2.8 2.8 0 012.17-.761 3.78 3.78 0 011.561.342zm-6.244-7.73a4.47 4.47 0 00.609 2.285 4.424 4.424 0 001.675 1.675 4.508 4.508 0 002.323.609 4.483 4.483 0 003.236-1.294 4.311 4.311 0 001.371-3.275 4.228 4.228 0 00-1.333-3.2 4.362 4.362 0 00-3.236-1.292 4.48 4.48 0 00-3.274 1.332 4.124 4.124 0 00-1.371 3.16zm6.739-2.018a2.678 2.678 0 01.876 2.018 3.082 3.082 0 01-.648 1.869 2.823 2.823 0 01-2.284 1.025 2.783 2.783 0 01-2.132-.838 2.671 2.671 0 01-.838-2.056 2.678 2.678 0 01.876-2.018 2.9 2.9 0 012.132-.838 2.762 2.762 0 012.018.838z"/></svg>