<svg width="25" height="21" viewBox="0 0 25 21" fill="none" xmlns="http://www.w3.org/2000/svg">
<path d="M0.945402 3.3H2.3094L3.5744 8.624L4.8064 3.3H6.2034L4.2894 11H2.8704L0.945402 3.3ZM7.664 4.488C7.488 4.488 7.334 4.422 7.202 4.29C7.07 4.158 7.004 4.004 7.004 3.828C7.004 3.65933 7.07 3.51267 7.202 3.388C7.334 3.256 7.488 3.19 7.664 3.19C7.83266 3.19 7.97933 3.256 8.104 3.388C8.236 3.51267 8.302 3.65933 8.302 3.828C8.302 4.004 8.236 4.158 8.104 4.29C7.97933 4.422 7.83266 4.488 7.664 4.488ZM7.026 5.489H8.236V11H7.026V5.489ZM10.044 7.194C10.044 6.424 10.3557 5.896 10.979 5.61C11.2797 5.46333 11.6317 5.39 12.035 5.39C12.3797 5.39 12.6694 5.434 12.904 5.522V3.3H14.103V11L13.498 11.055C13.0214 11.1063 12.6474 11.132 12.376 11.132C12.1047 11.132 11.848 11.1063 11.606 11.055C11.3714 11.0037 11.1367 10.9193 10.902 10.802C10.638 10.67 10.429 10.4757 10.275 10.219C10.121 9.96233 10.044 9.647 10.044 9.273V7.194ZM12.904 6.798C12.64 6.67333 12.3944 6.611 12.167 6.611C11.903 6.611 11.683 6.69533 11.507 6.864C11.331 7.03267 11.243 7.28933 11.243 7.634V9.35C11.243 9.54067 11.3457 9.69833 11.551 9.823C11.7564 9.94767 12.0167 10.01 12.332 10.01C12.53 10.01 12.7207 9.98433 12.904 9.933V6.798ZM16.3565 9.361C16.3565 9.56633 16.4115 9.72767 16.5215 9.845C16.6388 9.955 16.8075 10.01 17.0275 10.01C17.3648 10.01 17.8158 9.86333 18.3805 9.57L18.8205 10.615C18.5565 10.7837 18.2558 10.912 17.9185 11C17.5812 11.088 17.2438 11.132 16.9065 11.132C16.3638 11.132 15.9312 11 15.6085 10.736C15.2932 10.4647 15.1355 10.0613 15.1355 9.526V7.271C15.1355 6.677 15.3188 6.215 15.6855 5.885C16.0595 5.555 16.5508 5.39 17.1595 5.39C17.7682 5.39 18.2412 5.555 18.5785 5.885C18.9232 6.20767 19.0955 6.65867 19.0955 7.238V8.91L16.3565 9.053V9.361ZM17.8745 7.26C17.8745 7.04 17.8048 6.87133 17.6655 6.754C17.5262 6.63667 17.3538 6.578 17.1485 6.578C16.8698 6.578 16.6682 6.65133 16.5435 6.798C16.4188 6.94467 16.3565 7.106 16.3565 7.282V7.942L17.8745 7.843V7.26ZM24.481 8.976C24.481 9.592 24.3124 10.1017 23.975 10.505C23.6377 10.9083 23.128 11.11 22.446 11.11C21.764 11.11 21.247 10.9083 20.895 10.505C20.5504 10.0943 20.378 9.58467 20.378 8.976V7.524C20.378 6.82733 20.554 6.29567 20.906 5.929C21.2654 5.555 21.7787 5.368 22.446 5.368C23.084 5.368 23.5827 5.56233 23.942 5.951C24.3014 6.33233 24.481 6.85667 24.481 7.524V8.976ZM23.282 7.524C23.282 7.13533 23.2014 6.88233 23.04 6.765C22.8787 6.64767 22.6807 6.589 22.446 6.589C21.874 6.589 21.588 6.90067 21.588 7.524V9.086C21.588 9.37933 21.6687 9.592 21.83 9.724C21.9914 9.856 22.1967 9.922 22.446 9.922C22.688 9.922 22.886 9.85233 23.04 9.713C23.2014 9.57367 23.282 9.36467 23.282 9.086V7.524Z" fill="white"/>
<path d="M11.1304 17.22C11.1504 17.4467 11.2338 17.6633 11.3804 17.87C11.5338 18.0767 11.7404 18.2467 12.0004 18.38C12.2671 18.5067 12.5704 18.57 12.9104 18.57C13.4238 18.57 13.8504 18.4567 14.1904 18.23C14.5371 17.9967 14.7104 17.63 14.7104 17.13C14.7104 16.8367 14.6271 16.5933 14.4604 16.4C14.2938 16.2 14.0871 16.0433 13.8404 15.93C13.5938 15.81 13.2571 15.6733 12.8304 15.52C12.3704 15.36 12.0004 15.2133 11.7204 15.08C11.4471 14.94 11.2138 14.7533 11.0204 14.52C10.8338 14.2867 10.7404 13.9867 10.7404 13.62C10.7404 13.3267 10.8238 13.05 10.9904 12.79C11.1571 12.5233 11.4071 12.31 11.7404 12.15C12.0804 11.9833 12.4971 11.9 12.9904 11.9C13.3171 11.9 13.5871 11.9233 13.8004 11.97C14.0138 12.0167 14.2304 12.0933 14.4504 12.2L14.2804 12.73C13.9004 12.5367 13.4771 12.44 13.0104 12.44C12.4971 12.44 12.0871 12.5467 11.7804 12.76C11.4738 12.9733 11.3204 13.27 11.3204 13.65C11.3204 13.89 11.3971 14.0933 11.5504 14.26C11.7038 14.42 11.8904 14.55 12.1104 14.65C12.3371 14.75 12.6504 14.87 13.0504 15.01C13.5371 15.1767 13.9304 15.3333 14.2304 15.48C14.5304 15.62 14.7838 15.8233 14.9904 16.09C15.2038 16.35 15.3104 16.68 15.3104 17.08C15.3104 17.6933 15.1138 18.1867 14.7204 18.56C14.3338 18.9267 13.7338 19.11 12.9204 19.11C12.4271 19.11 12.0038 19.02 11.6504 18.84C11.3038 18.6533 11.0371 18.4167 10.8504 18.13C10.6704 17.8367 10.5738 17.5333 10.5604 17.22H11.1304ZM16.9159 12.57C16.8292 12.57 16.7492 12.5367 16.6759 12.47C16.6092 12.3967 16.5759 12.3167 16.5759 12.23C16.5759 12.1433 16.6092 12.0667 16.6759 12C16.7426 11.9333 16.8226 11.9 16.9159 11.9C17.0092 11.9 17.0859 11.9333 17.1459 12C17.2126 12.06 17.2459 12.1367 17.2459 12.23C17.2459 12.3233 17.2126 12.4033 17.1459 12.47C17.0792 12.5367 17.0026 12.57 16.9159 12.57ZM16.6259 13.99H17.1859V19H16.6259V13.99ZM19.542 19.13C19.1687 19.0233 18.8987 18.8533 18.732 18.62C18.5653 18.3867 18.482 18.0733 18.482 17.68V12H19.042V13.99H20.242L20.002 14.52H19.042V17.68C19.042 18.2133 19.262 18.5533 19.702 18.7L19.542 19.13ZM24.1736 18.65C23.9336 18.8033 23.6603 18.92 23.3536 19C23.047 19.08 22.7403 19.12 22.4336 19.12C21.9403 19.12 21.547 19 21.2536 18.76C20.967 18.5133 20.8236 18.1467 20.8236 17.66V15.61C20.8236 15.07 20.9903 14.65 21.3236 14.35C21.6636 14.05 22.1103 13.9 22.6636 13.9C23.217 13.9 23.647 14.05 23.9536 14.35C24.267 14.6433 24.4236 15.0533 24.4236 15.58V16.88L21.3836 17.05V17.66C21.3836 17.98 21.487 18.22 21.6936 18.38C21.9003 18.54 22.1703 18.62 22.5036 18.62C22.9703 18.62 23.4536 18.4867 23.9536 18.22L24.1736 18.65ZM23.8636 15.51C23.8636 15.0967 23.7336 14.8067 23.4736 14.64C23.2136 14.4667 22.9403 14.38 22.6536 14.38C22.287 14.38 21.9836 14.48 21.7436 14.68C21.5036 14.88 21.3836 15.1933 21.3836 15.62V16.5L23.8636 16.38V15.51Z" fill="white"/>
<path d="M5.509 18.9723H8.02353C8.48334 18.9723 8.85585 18.5374 8.85585 18.0011V16.4144C8.82131 16.4173 8.78695 16.4207 8.75193 16.4207C7.9776 16.4207 7.33243 15.7777 7.18128 14.9258H6.99658C6.63873 15.5663 6.02076 15.9914 5.31778 15.9914C5.0943 15.9914 4.87979 15.9468 4.6788 15.8673C4.67847 15.8776 4.67636 15.8869 4.67636 15.897V16.29L1 15.0675V18.4256L4.67668 17.2526V18.0007C4.67684 18.5374 5.04951 18.9723 5.509 18.9723Z" fill="white"/>
<path d="M6.96524 13.6942C6.96524 12.5881 6.19661 11.6914 5.24833 11.6914C4.30004 11.6914 3.53125 12.5881 3.53125 13.6942C3.53125 14.8006 4.29988 15.6975 5.24833 15.6975C6.19677 15.6975 6.96524 14.8006 6.96524 13.6942ZM4.92762 13.6942C4.92762 13.4877 5.07128 13.3201 5.24849 13.3201C5.42554 13.3201 5.56904 13.4877 5.56904 13.6942C5.56904 13.901 5.42554 14.0684 5.24849 14.0684C5.07128 14.0684 4.92762 13.901 4.92762 13.6942Z" fill="white"/>
<path d="M9.99949 14.5886C9.99949 13.7392 9.40938 13.0508 8.6813 13.0508C7.95323 13.0508 7.36328 13.7394 7.36328 14.5886C7.36328 15.4378 7.95339 16.1265 8.6813 16.1265C9.40921 16.1265 9.99949 15.438 9.99949 14.5886ZM8.6813 14.963C8.50425 14.963 8.36043 14.7956 8.36043 14.5888C8.36043 14.3821 8.50425 14.2147 8.6813 14.2147C8.85852 14.2147 9.00201 14.3821 9.00201 14.5888C9.00201 14.7956 8.85852 14.963 8.6813 14.963Z" fill="white"/>
</svg>
